<?xml version="1.0" encoding="UTF-8" standalone="no"?>
<!DOCTYPE svg PUBLIC "-//W3C//DTD SVG 1.1//EN" "http://www.w3.org/Graphics/SVG/1.1/DTD/svg11.dtd">
<svg width="100%" height="100%" viewBox="0 0 64 64" version="1.1" xmlns="http://www.w3.org/2000/svg" xmlns:xlink="http://www.w3.org/1999/xlink" xml:space="preserve" xmlns:serif="http://www.serif.com/" style="fill-rule:evenodd;clip-rule:evenodd;stroke-linejoin:round;stroke-miterlimit:2;">
    <g transform="matrix(1,0,0,1,-788.516,0)">
        <g id="m-curves" serif:id="m curves" transform="matrix(0.209634,0,0,0.429586,701.868,-286.898)">
            <rect x="413.33" y="667.848" width="305.294" height="148.981" style="fill:none;"/>
            <g transform="matrix(3.7996,0,0,1.85417,-2218.69,-609.624)">
                <g transform="matrix(1.04596,0,0,1,-185.943,-279.212)">
                    <path d="M909.846,1031.18L847.068,1029.4L847.068,1013.58L909.846,1010.66L909.846,1031.18Z" style="fill:rgb(255,232,98);"/>
                </g>
                <g transform="matrix(5.77577,0,0,5.77577,-3750.91,-3311.27)">
                    <path d="M771.747,702.002L771.747,695.702L772.995,695.702L772.995,697.046L772.767,697.19C772.831,696.982 772.933,696.782 773.073,696.59C773.213,696.398 773.385,696.228 773.589,696.08C773.793,695.932 774.013,695.814 774.249,695.726C774.485,695.638 774.727,695.594 774.975,695.594C775.335,695.594 775.651,695.654 775.923,695.774C776.195,695.894 776.419,696.074 776.595,696.314C776.771,696.554 776.899,696.854 776.979,697.214L776.787,697.166L776.871,696.962C776.959,696.778 777.081,696.604 777.237,696.44C777.393,696.276 777.571,696.13 777.771,696.002C777.971,695.874 778.183,695.774 778.407,695.702C778.631,695.63 778.851,695.594 779.067,695.594C779.539,695.594 779.929,695.69 780.237,695.882C780.545,696.074 780.777,696.366 780.933,696.758C781.089,697.15 781.167,697.638 781.167,698.222L781.167,702.002L779.919,702.002L779.919,698.294C779.919,697.934 779.873,697.64 779.781,697.412C779.689,697.184 779.551,697.014 779.367,696.902C779.183,696.79 778.947,696.734 778.659,696.734C778.435,696.734 778.225,696.772 778.029,696.848C777.833,696.924 777.663,697.03 777.519,697.166C777.375,697.302 777.263,697.46 777.183,697.64C777.103,697.82 777.063,698.018 777.063,698.234L777.063,702.002L775.815,702.002L775.815,698.27C775.815,697.942 775.767,697.664 775.671,697.436C775.575,697.208 775.435,697.034 775.251,696.914C775.067,696.794 774.843,696.734 774.579,696.734C774.355,696.734 774.147,696.772 773.955,696.848C773.763,696.924 773.595,697.028 773.451,697.16C773.307,697.292 773.195,697.448 773.115,697.628C773.035,697.808 772.995,698.002 772.995,698.21L772.995,702.002L771.747,702.002Z" style="fill:rgb(230,0,118);fill-rule:nonzero;"/>
                </g>
            </g>
        </g>
    </g>
</svg>
